<svg viewbox="0 0 30 30" fill="none" xmlns="http://www.w3.org/2000/svg">
  <path d="M12.613 13.483a2.531 2.531 0 100-5.062 2.531 2.531 0 000 5.062zm0-4.123a1.593 1.593 0 110 3.185 1.593 1.593 0 010-3.185zM26.602 19.805H24.55v-2.051a.47.47 0 00-.938 0v2.05h-1.992a.469.469 0 000 .938h1.992v1.992a.469.469 0 00.938 0v-1.992h2.05a.469.469 0 000-.937z" fill="currentColor"/>
  <path d="M27.656 16.004V7.132c0-1.55-1.277-2.796-2.827-2.796H3.209A2.79 2.79 0 00.41 7.132V21.26c0 1.552 1.247 2.823 2.798 2.823h17.044a5.484 5.484 0 009.36-3.878c0-1.683-.784-3.195-1.956-4.2zM3.208 5.274h21.62c1.035 0 1.89.824 1.89 1.858v8.237a5.453 5.453 0 00-3.197-.611l-3.927-2.78a.47.47 0 00-.6.047L13.7 17.227 7.55 14.229a.455.455 0 00-.434.016l-5.768 3.35V7.132a1.851 1.851 0 011.86-1.859zm-1.86 15.985v-2.58L7.37 15.18l5.624 2.748-5.306 5.216H3.21a1.873 1.873 0 01-1.861-1.886zm7.679 1.886L19.37 12.974l2.923 2.068a5.493 5.493 0 00-3.645 5.166c0 1.079.313 2.058.853 2.937H9.027zm15.099 1.598a4.54 4.54 0 110-9.081 4.54 4.54 0 010 9.08z" fill="currentColor"/>
</svg>
