<svg viewBox="0 0 14 14" fill="none" xmlns="http://www.w3.org/2000/svg">
	<g fill="currentColor">
		<path
			d="M13.95 10.988l-.813-2.367c.391-.8.599-1.692.6-2.588a5.878 5.878 0 00-1.698-4.151A5.873 5.873 0 007.919.11a5.869 5.869 0 00-4.277 1.732A5.864 5.864 0 001.91 5.946a4.31 4.31 0 00-1.308 5.295l-.56 1.63a.764.764 0 00.184.793.764.764 0 00.794.184l1.63-.56a4.327 4.327 0 001.842.416H4.5a4.303 4.303 0 003.48-1.77 5.933 5.933 0 002.443-.598l2.366.813a.908.908 0 00.944-.218.908.908 0 00.218-.943zM4.499 12.87h-.006c-.563 0-1.123-.14-1.618-.401a.417.417 0 00-.33-.026l-1.672.574.575-1.671a.417.417 0 00-.026-.33 3.472 3.472 0 01.566-4.028 5.877 5.877 0 001.694 3.25 5.882 5.882 0 003.254 1.632c-.645.636-1.514 1-2.437 1zm8.643-1.528a.075.075 0 01-.083.02l-2.534-.871a.417.417 0 00-.33.026 5.09 5.09 0 01-2.364.586h-.007c-2.758 0-5.037-2.24-5.08-4.997A5.042 5.042 0 014.23 2.43 5.042 5.042 0 017.906.944c2.76.043 5.002 2.326 4.998 5.087a5.09 5.09 0 01-.587 2.364.417.417 0 00-.026.33l.87 2.534c.011.031.005.06-.019.083z"
		/>
		<path
			d="M10.306 3.815H5.34a.417.417 0 000 .833h4.965a.417.417 0 000-.833zM10.306 5.528H5.34a.417.417 0 000 .834h4.965a.417.417 0 000-.834zM8.395 7.242H5.34a.417.417 0 000 .833h3.054a.417.417 0 000-.833z"
		/>
	</g>
</svg>
