<svg xmlns="http://www.w3.org/2000/svg" viewBox="0 0 10 10">
  <path fill="currentColor" d="M8.852.403a1.377 1.377 0 00-1.946 0l-.487.49-5.185 5.182-.011.011c-.003.003-.003.006-.006.006-.005.008-.013.016-.019.024 0 .003-.003.003-.003.006l-.014.022-.005.008-.008.022c0 .003-.003.003-.003.006L.015 9.64a.27.27 0 00.066.28.277.277 0 00.283.066l3.457-1.153c.003 0 .003 0 .005-.003a.1.1 0 00.025-.01.01.01 0 00.006-.003l.027-.017.025-.02c.003-.002.005-.002.005-.005.003-.003.009-.005.011-.01l5.672-5.673a1.377 1.377 0 000-1.946L8.852.403zm-5.12 7.783L1.818 6.271l4.794-4.795 1.916 1.916-4.794 4.794zM1.549 6.78L3.22 8.453.708 9.29l.84-2.51zm7.661-4.074l-.291.295-1.916-1.916.295-.294a.825.825 0 011.167 0l.748.748a.828.828 0 01-.003 1.167z"/>
</svg>
