<svg viewbox="0 0 10 10" fill="none" xmlns="http://www.w3.org/2000/svg">
  <path d="M9.573.337L9.561.326a1.243 1.243 0 00-1.76.08L3.348 5.28a.43.43 0 00-.09.154l-.524 1.57a.597.597 0 00.565.785.594.594 0 00.24-.05l1.516-.664a.43.43 0 00.145-.104l4.453-4.875a1.247 1.247 0 00-.08-1.76zM3.737 6.714l.307-.92.026-.03.583.533-.026.028-.89.39zm5.281-5.197L5.233 5.662 4.65 5.13 8.436.986A.385.385 0 018.982.96l.011.011a.387.387 0 01.025.546z" fill="currentColor"/>
  <path d="M8.71 3.967a.43.43 0 00-.43.43v3.65c0 .603-.491 1.093-1.094 1.093H1.975c-.603 0-1.093-.49-1.093-1.093V2.878c0-.603.49-1.093 1.093-1.093h3.772a.43.43 0 000-.86H1.975A1.956 1.956 0 00.022 2.878v5.169C.022 9.124.898 10 1.975 10h5.21A1.956 1.956 0 009.14 8.047v-3.65a.43.43 0 00-.43-.43z" fill="currentColor"/>
</svg>
