<svg viewBox="0 0 12 12" fill="none" xmlns="http://www.w3.org/2000/svg">
    <g fill="currentColor">
      <path d="M11.609 6.391H4.043a.391.391 0 010-.782h7.566a.391.391 0 010 .782z"/>
      <path d="M6.13 8.478c-.1 0-.2-.038-.276-.115L3.767 6.277a.392.392 0 010-.554l2.087-2.087a.392.392 0 01.554.554L4.598 6l1.81 1.81a.391.391 0 01-.278.668z"/>
      <path d="M5.74 11.74A5.746 5.746 0 010 6 5.746 5.746 0 015.74.26a5.71 5.71 0 015.34 3.64.392.392 0 01-.728.287A4.931 4.931 0 005.74 1.043 4.962 4.962 0 00.783 6a4.962 4.962 0 004.956 4.957 4.932 4.932 0 004.613-3.143.392.392 0 01.729.286 5.71 5.71 0 01-5.342 3.64z"/>
    </g>
</svg>
