<svg xmlns="http://www.w3.org/2000/svg" xmlns:xlink="http://www.w3.org/1999/xlink"><defs><symbol viewBox="0 0 77 77" id="add"><path d="M38.5 1.295v74.41M76.5 39H.5" fill="none" fill-rule="evenodd" stroke="currentColor" stroke-linecap="square" /></symbol><symbol viewBox="0 0 480 480" id="add_image"><path d="M440 72H40C17.92 72.026.026 89.92 0 112v256c.026 22.08 17.92 39.974 40 40h400a37.03 37.03 0 006.696-.584C465.945 404.194 480.037 387.517 480 368V112c-.026-22.081-17.92-39.974-40-40zM40 392c-12.435-.002-22.81-9.501-23.904-21.888L175.6 265.824 337.808 392H40zm424-24c.013 11.742-8.492 21.761-20.08 23.656A21.746 21.746 0 01440 392h-76.136l-105.992-82.488 94.784-75.792L464 300.528V368zm0-86.128l-107.88-64.728a8 8 0 00-9.12.608l-102.136 81.68-63.96-49.744a8 8 0 00-9.28-.384L16 351.056V112c0-13.255 10.745-24 24-24h400c13.255 0 24 10.745 24 24v169.872z" fill="currentColor" /><path d="M240 120c-26.51 0-48 21.49-48 48 .026 26.499 21.501 47.974 48 48 26.51 0 48-21.49 48-48s-21.49-48-48-48zm0 80c-17.673 0-32-14.327-32-32s14.327-32 32-32c17.673 0 32 14.327 32 32s-14.327 32-32 32z" fill="currentColor" /></symbol><symbol viewBox="0 0 512 512" id="add_project"><path fill="currentColor" d="M504 256a8.006 8.006 0 00-5.03-7.43L347.54 188l151.43-60.57a8 8 0 000-14.86l-240-96a8.023 8.023 0 00-5.94 0l-240 96a8 8 0 000 14.86L164.46 188 13.03 248.57a8 8 0 000 14.86L164.46 324 13.03 384.57a8 8 0 000 14.86l240 96a8.023 8.023 0 005.94 0l240-96a8 8 0 000-14.86L347.54 324l151.43-60.57A8.006 8.006 0 00504 256zM37.54 120L256 32.62 474.46 120 256 207.38zm436.92 272L256 479.38 37.54 392 186 332.62l67.03 26.81a8.023 8.023 0 005.94 0L326 332.62zM256 343.38L37.54 256 186 196.62l67.03 26.81a8.023 8.023 0 005.94 0L326 196.62 474.46 256z" /></symbol><symbol viewBox="0 0 10 10" id="archive"><g fill="currentColor"><path d="M9.833 9.667h-.666V5a.5.5 0 00-.5-.5v-1a.5.5 0 00-.5-.5V2a.5.5 0 00-.5-.5v-1a.5.5 0 00-.5-.5H2.833a.5.5 0 00-.5.5v1a.5.5 0 00-.5.5v1a.5.5 0 00-.5.5v1a.5.5 0 00-.5.5v4.667H.167a.167.167 0 100 .333h9.666a.167.167 0 000-.333zM2.667.5c0-.092.074-.167.166-.167h4.334c.092 0 .166.075.166.167v1H4.816a.833.833 0 00-1.632 0h-.517v-1zm1.802 1h-.938a.497.497 0 01.938 0zM2.167 2c0-.092.074-.167.166-.167h5.334c.092 0 .166.075.166.167v1H4.316a.833.833 0 00-1.632 0h-.517V2zm1.802 1h-.938a.497.497 0 01.938 0zm-2.302.5c0-.092.074-.167.166-.167h6.334c.092 0 .166.075.166.167v1H3.816a.833.833 0 00-1.632 0h-.517v-1zm1.802 1h-.938a.497.497 0 01.938 0zm5.364 5.167H1.167V5c0-.092.074-.167.166-.167h7.334c.092 0 .166.075.166.167v4.667z" /><path d="M2.833 7.5a1 1 0 100-2 1 1 0 000 2zm0-1.667a.667.667 0 110 1.334.667.667 0 010-1.334zM8 5.5H4.5a.167.167 0 100 .333H8A.167.167 0 108 5.5zm0 .833H4.5a.167.167 0 000 .334H8a.167.167 0 000-.334zm0 .834H4.5a.167.167 0 100 .333H8a.167.167 0 100-.333zM8 8H2a.167.167 0 100 .333h6A.167.167 0 108 8zm0 .833H2a.167.167 0 000 .334h6a.167.167 0 100-.334z" /></g></symbol><symbol viewBox="0 0 16 16" id="check"><path fill="#112636" d="M5.61 10.89L2.5 7.78 1.44 8.84 5.61 13l8.95-8.95L13.5 3z" /></symbol><symbol viewBox="0 0 24 15" id="chevron-down"><path d="M21 0l3 3-12 12L0 3l3-3 9 9 9-9z" /></symbol><symbol viewBox="0 0 512.001 512.001" id="close"><path fill="currentColor" d="M284.286 256.002L506.143 34.144c7.811-7.811 7.811-20.475 0-28.285-7.811-7.81-20.475-7.811-28.285 0L256 227.717 34.143 5.859c-7.811-7.811-20.475-7.811-28.285 0-7.81 7.811-7.811 20.475 0 28.285l221.857 221.857L5.858 477.859c-7.811 7.811-7.811 20.475 0 28.285a19.938 19.938 0 0014.143 5.857 19.94 19.94 0 0014.143-5.857L256 284.287l221.857 221.857c3.905 3.905 9.024 5.857 14.143 5.857s10.237-1.952 14.143-5.857c7.811-7.811 7.811-20.475 0-28.285L284.286 256.002z" /></symbol><symbol viewBox="0 0 10 12" id="delete"><g fill="currentColor"><path d="M6.531 4.348a.281.281 0 00-.28.28V9.94a.281.281 0 00.561 0V4.63a.281.281 0 00-.28-.281zm-3.316 0a.281.281 0 00-.281.28V9.94a.281.281 0 00.562 0V4.63a.281.281 0 00-.281-.281z" /><path d="M.798 3.573v6.924c0 .409.15.793.412 1.069.261.276.624.433 1.005.434h5.317c.38 0 .743-.158 1.004-.434a1.55 1.55 0 00.412-1.07V3.574a1.074 1.074 0 00-.275-2.112h-1.44v-.35A1.104 1.104 0 006.122 0H3.625a1.104 1.104 0 00-1.113 1.11v.351H1.074a1.074 1.074 0 00-.276 2.112zm6.734 7.865H2.215c-.481 0-.855-.413-.855-.941v-6.9h7.026v6.9c0 .528-.374.941-.854.941zM3.075 1.11a.541.541 0 01.55-.548h2.496a.541.541 0 01.55.548v.351H3.076v-.35zm-2.001.913h7.599a.506.506 0 110 1.012h-7.6a.506.506 0 110-1.012z" /><path d="M4.873 4.348a.281.281 0 00-.28.28V9.94a.281.281 0 00.561 0V4.63a.281.281 0 00-.28-.281z" /></g></symbol><symbol viewBox="0 0 10 10" id="edit"><path fill="currentColor" d="M8.852.403a1.377 1.377 0 00-1.946 0l-.487.49-5.185 5.182-.011.011c-.003.003-.003.006-.006.006-.005.008-.013.016-.019.024 0 .003-.003.003-.003.006l-.014.022-.005.008-.008.022c0 .003-.003.003-.003.006L.015 9.64a.27.27 0 00.066.28.277.277 0 00.283.066l3.457-1.153c.003 0 .003 0 .005-.003a.1.1 0 00.025-.01.01.01 0 00.006-.003l.027-.017.025-.02c.003-.002.005-.002.005-.005.003-.003.009-.005.011-.01l5.672-5.673a1.377 1.377 0 000-1.946L8.852.403zm-5.12 7.783L1.818 6.271l4.794-4.795 1.916 1.916-4.794 4.794zM1.549 6.78L3.22 8.453.708 9.29l.84-2.51zM9.21 2.706l-.291.295-1.916-1.916.295-.294a.825.825 0 011.167 0l.748.748a.828.828 0 01-.003 1.167z" /></symbol><symbol viewBox="0 0 10 10" id="exit"><g fill="currentColor"><path d="M9.669 4.679H5.718a.312.312 0 010-.624h3.95a.312.312 0 010 .624z" /><path d="M8.11 6.238a.312.312 0 01-.22-.533l1.338-1.339-1.34-1.339a.312.312 0 11.442-.441l1.56 1.56a.312.312 0 010 .44l-1.56 1.56a.31.31 0 01-.22.092zM3.326 9.981a.857.857 0 01-.258-.039L.566 9.108A.84.84 0 010 8.318V.831A.833.833 0 011.09.039l2.502.834a.84.84 0 01.567.79V9.15a.833.833 0 01-.832.832zM.832.624a.209.209 0 00-.208.208v7.485c0 .089.06.171.144.2l2.491.83c.018.007.041.01.068.01a.209.209 0 00.208-.208V1.664a.215.215 0 00-.145-.2L.9.633a.226.226 0 00-.068-.01z" /><path d="M6.342 3.327a.312.312 0 01-.312-.312V1.144a.52.52 0 00-.52-.52H.832a.312.312 0 010-.624H5.51c.631 0 1.144.513 1.144 1.144v1.871c0 .172-.14.312-.312.312zM5.51 8.733H3.847a.312.312 0 010-.624H5.51a.52.52 0 00.52-.52V5.72a.312.312 0 01.624 0v1.87c0 .631-.513 1.144-1.144 1.144z" /></g></symbol><symbol viewBox="0 0 33 64" id="facebook"><path fill-rule="evenodd" d="M21.625 64V34.75h9.75l1.5-11.375h-11.25v-7.25c0-1.833.396-3.208 1.188-4.125.791-.917 2.27-1.375 4.437-1.375h6V.5C31.917.167 29 0 24.5 0s-8.062 1.312-10.688 3.938C11.188 6.563 9.876 10.25 9.876 15v8.375H0V34.75h9.875V64h11.75z" /></symbol><symbol viewBox="0 0 64 30" id="flickr"><path d="M15 30c-4.138 0-7.672-1.466-10.603-4.397C1.466 22.673 0 19.138 0 15S1.466 7.328 4.397 4.397C7.327 1.466 10.862 0 15 0s7.672 1.466 10.603 4.397C28.534 7.327 30 10.862 30 15s-1.466 7.672-4.397 10.603C22.673 28.534 19.138 30 15 30zm34 0c-4.138 0-7.672-1.466-10.603-4.397C35.466 22.673 34 19.138 34 15s1.466-7.672 4.397-10.603C41.327 1.466 44.862 0 49 0s7.672 1.466 10.603 4.397C62.534 7.327 64 10.862 64 15s-1.466 7.672-4.397 10.603C56.673 28.534 53.138 30 49 30z" fill-rule="evenodd" /></symbol><symbol viewBox="0 0 46 64" id="foursquare"><path fill-rule="evenodd" d="M40.328 0c4.606 0 6.407 2.702 5.402 8.105-.419 1.996-1.13 5.425-2.136 10.288-1.005 4.863-1.905 9.31-2.7 13.343-.797 4.032-1.236 6.255-1.32 6.671-.251.998-.482 1.746-.691 2.245-.21.498-.733 1.08-1.57 1.745-.838.665-1.927.998-3.267.998H23.493c-.251 0-.544.125-.88.374-.167.166-5.653 6.484-16.457 18.954-1.089 1.33-2.47 1.621-4.146.873C.67 63.18 0 61.933 0 59.855V5.736c0-1.413.482-2.722 1.445-3.928C2.408.603 3.936 0 6.03 0h34.298zm-2.01 9.228a2.046 2.046 0 00-.377-1.56c-.335-.456-.754-.685-1.257-.685H9.171c-.586 0-1.089.229-1.507.686-.42.457-.629.935-.629 1.434v42.273c0 .166.084.166.252 0l11.18-13.468c.922-1.08 2.053-1.62 3.393-1.62h9.171c1.173 0 1.885-.541 2.136-1.622.837-4.157 1.34-6.609 1.507-7.357.084-.582-.083-1.122-.502-1.621-.419-.499-.88-.748-1.382-.748H21.357c-1.675 0-2.512-.832-2.512-2.494v-1.621c0-1.663.837-2.494 2.512-2.494H34.8c1.089 0 1.8-.54 2.136-1.621l1.382-7.482z" /></symbol><symbol viewBox="0 0 64 41" id="google-plus"><g fill-rule="evenodd"><path d="M20.835 16.862v7.876h11.077c-.492 2.626-1.846 4.718-4.061 6.277-1.395.903-2.872 1.477-4.431 1.723-1.97.329-3.61.329-4.923 0-1.477-.246-2.954-.902-4.431-1.969-2.215-1.477-3.774-3.528-4.677-6.154-.903-2.625-.903-5.25 0-7.877.656-1.887 1.641-3.487 2.954-4.8 1.723-1.723 3.733-2.83 6.03-3.323 2.216-.41 4.185-.328 5.908.247 1.723.492 3.2 1.353 4.431 2.584l5.662-5.661c-1.806-1.806-3.98-3.16-6.523-4.062C23.42.082 18.866.041 14.189 1.6c-5.17 1.805-8.985 5.128-11.446 9.97-.82 1.722-1.395 3.445-1.723 5.168C.117 21.251.692 25.6 2.743 29.785c1.477 2.79 3.323 5.005 5.538 6.646 2.38 1.887 4.841 3.159 7.385 3.815 3.364.903 6.81.903 10.338 0 3.036-.574 5.785-1.97 8.247-4.184 2.461-2.38 4.143-5.21 5.046-8.493 1.066-3.282 1.272-6.851.615-10.707H20.835zM63.666 17.354h-6.892v-6.892h-5.047v6.892h-6.892V22.4h6.892v6.892h5.047V22.4h6.892z" /></g></symbol><symbol viewBox="0 0 64 64" id="instagram"><g fill-rule="evenodd"><path d="M32 0c4.25 0 8.625.083 13.125.25 3 .083 5.583.542 7.75 1.375 2.25.917 4.167 2.167 5.75 3.75 1.583 1.583 2.833 3.5 3.75 5.75.833 2 1.292 4.583 1.375 7.75.167 4.5.25 8.875.25 13.125s-.083 8.625-.25 13.125c-.083 3-.542 5.583-1.375 7.75-.917 2.25-2.167 4.167-3.75 5.75-1.583 1.583-3.5 2.833-5.75 3.75-2 .833-4.583 1.292-7.75 1.375-4.5.167-8.875.25-13.125.25s-8.625-.083-13.125-.25c-3-.083-5.583-.542-7.75-1.375-2.25-.917-4.167-2.167-5.75-3.75-1.583-1.583-2.833-3.5-3.75-5.75-.833-2-1.292-4.583-1.375-7.75C.083 40.625 0 36.25 0 32s.083-8.625.25-13.125c.083-3 .542-5.583 1.375-7.75.917-2.25 2.167-4.167 3.75-5.75 1.583-1.583 3.5-2.833 5.75-3.75 2-.833 4.583-1.292 7.75-1.375C23.375.083 27.75 0 32 0zm0 5.75c-4 0-8.333.083-13 .25-2.333.083-4.333.458-6 1.125-1.333.5-2.542 1.292-3.625 2.375-1 1-1.792 2.208-2.375 3.625-.583 1.75-.917 3.75-1 6-.167 4.5-.25 8.792-.25 12.875 0 4 .083 8.333.25 13 .083 2.333.458 4.333 1.125 6 .5 1.333 1.292 2.542 2.375 3.625 1 1 2.208 1.792 3.625 2.375 1.75.583 3.75.917 6 1 4.5.167 8.792.25 12.875.25 4 0 8.333-.083 13-.25 2.333-.083 4.333-.458 6-1.125 1.333-.5 2.542-1.292 3.625-2.375 1-1 1.792-2.208 2.375-3.625.583-1.75.917-3.75 1-6 .167-4.5.25-8.792.25-12.875 0-4-.083-8.333-.25-13-.083-2.333-.458-4.333-1.125-6-.5-1.333-1.292-2.542-2.375-3.625-1-1-2.208-1.792-3.625-2.375-1.75-.583-3.75-.917-6-1-4.5-.167-8.792-.25-12.875-.25z" /><path d="M31.5 16c4.583 0 8.48 1.604 11.688 4.813C46.395 24.02 48 27.916 48 32.5c0 4.583-1.604 8.48-4.813 11.688C39.98 47.395 36.084 49 31.5 49c-4.583 0-8.48-1.604-11.688-4.813C16.605 40.98 15 37.084 15 32.5c0-4.583 1.604-8.48 4.813-11.688C23.02 17.605 26.916 16 31.5 16zm0 27.25c2.917 0 5.437-1.062 7.563-3.188 2.125-2.125 3.187-4.645 3.187-7.562 0-2.917-1.062-5.437-3.188-7.563-2.125-2.125-4.645-3.187-7.562-3.187-2.917 0-5.437 1.062-7.563 3.188-2.125 2.125-3.187 4.645-3.187 7.562 0 2.917 1.062 5.437 3.188 7.563 2.125 2.125 4.645 3.187 7.562 3.187zM54 14.934c0 1.137-.372 2.099-1.115 2.886-.743.787-1.683 1.18-2.82 1.18-1.136 0-2.098-.393-2.885-1.18-.787-.787-1.18-1.749-1.18-2.886 0-1.136.393-2.076 1.18-2.82.787-.742 1.749-1.114 2.886-1.114 1.136 0 2.076.372 2.82 1.115.742.743 1.114 1.683 1.114 2.82z" /></g></symbol><symbol viewBox="0 0 64 63" id="linkedin"><path d="M47.389 32.246c-.903-.984-2.38-1.477-4.43-1.477-2.626 0-4.514.78-5.662 2.339-1.067 1.559-1.6 3.774-1.6 6.646v21.538c0 .41-.164.78-.493 1.108-.328.328-.697.492-1.107.492H22.774c-.247 0-.616-.164-1.108-.492-.328-.492-.492-.862-.492-1.108V21.538c0-.246.164-.615.492-1.107.492-.328.861-.493 1.108-.493h10.953c.329 0 .657.083.985.247.164.082.328.369.492.861v.616l.123.246v.984c2.708-2.625 6.441-3.938 11.2-3.938 5.334 0 9.436 1.272 12.308 3.815 2.954 2.708 4.43 6.605 4.43 11.693v26.83c0 .41-.163.78-.491 1.108-.329.328-.698.492-1.108.492h-11.57c-.245 0-.615-.164-1.107-.492-.328-.492-.492-.862-.492-1.108V37.046c0-2.051-.37-3.651-1.108-4.8zM13.297 13.17c-1.477 1.477-3.282 2.216-5.416 2.216-2.133 0-3.938-.739-5.415-2.216C.989 11.692.25 9.887.25 7.754c0-2.051.738-3.816 2.215-5.292C4.025.902 5.83.123 7.88.123c2.052 0 3.857.78 5.416 2.339 1.477 1.476 2.215 3.24 2.215 5.292 0 2.133-.738 3.938-2.215 5.415zm1.846 8.37v39.753c0 .246-.164.616-.492 1.108-.493.328-.862.492-1.108.492H2.22c-.246 0-.616-.164-1.108-.492-.328-.492-.492-.862-.492-1.108V21.538c0-.246.164-.615.492-1.107.492-.328.862-.493 1.108-.493h11.323c.246 0 .615.165 1.108.493.328.492.492.861.492 1.107z" fill-rule="evenodd" /></symbol><symbol viewBox="0 0 64 64" id="magnifier"><path fill-rule="evenodd" d="M41.66 37.546L64 59.886 59.886 64l-22.34-22.34a23.174 23.174 0 01-14.272 4.889C10.42 46.549 0 36.129 0 23.274 0 10.42 10.42 0 23.274 0 36.128 0 46.55 10.42 46.55 23.274c0 5.379-1.825 10.331-4.888 14.272zM23.275 40.73c9.64 0 17.456-7.815 17.456-17.456 0-9.64-7.815-17.455-17.456-17.455-9.64 0-17.455 7.815-17.455 17.455 0 9.64 7.815 17.456 17.455 17.456z" /></symbol><symbol viewBox="0 0 64 40" id="nav-hamburger"><path fill-rule="evenodd" d="M0 0h64v6H0V0zm0 17h64v6H0v-6zm0 17h64v6H0v-6z" /></symbol><symbol viewBox="-15 -15 484 484" id="pencil"><path fill="currentColor" d="M401.648 18.234c-24.394-24.351-63.898-24.351-88.293 0l-22.101 22.223-235.27 235.145-.5.503c-.12.122-.12.25-.25.25-.25.375-.625.747-.87 1.122 0 .125-.13.125-.13.25-.25.375-.37.625-.625 1-.12.125-.12.246-.246.375-.125.375-.25.625-.379 1 0 .12-.12.12-.12.25L.663 437.32a12.288 12.288 0 002.996 12.735 12.564 12.564 0 008.867 3.625c1.356-.024 2.7-.235 3.996-.625L173.37 400.73c.121 0 .121 0 .25-.12a4.523 4.523 0 001.121-.505.443.443 0 00.254-.12c.371-.25.871-.505 1.246-.755.371-.246.75-.62 1.125-.87.125-.13.246-.13.246-.25.13-.126.38-.247.504-.5l257.371-257.372c24.352-24.394 24.352-63.898 0-88.289zM169.375 371.383l-86.914-86.91L299.996 66.938l86.914 86.91zm-99.156-63.809l75.93 75.926-114.016 37.96zm347.664-184.82l-13.238 13.363L317.727 49.2l13.367-13.36c14.62-14.609 38.32-14.609 52.945 0l33.965 33.966c14.512 14.687 14.457 38.332-.121 52.949zm0 0" /></symbol><symbol viewBox="0 0 51 64" id="pinterest"><path fill-rule="evenodd" d="M14.802 24.5c0-2.833.705-5.125 2.115-6.875 1.41-1.917 3.11-2.875 5.1-2.875 1.659 0 2.903.542 3.732 1.625.912 1.167 1.368 2.542 1.368 4.125 0 .917-.207 2.125-.622 3.625-.663 2.667-1.12 4.375-1.368 5.125-.83 2.583-1.286 4.125-1.368 4.625-.498 2-.125 3.75 1.119 5.25 1.244 1.417 2.861 2.125 4.851 2.125 3.483 0 6.344-1.958 8.583-5.875 2.24-4 3.359-8.792 3.359-14.375 0-4.25-1.369-7.75-4.105-10.5-2.82-2.667-6.676-4-11.568-4-5.64 0-10.117 1.792-13.435 5.375-3.483 3.5-5.224 7.75-5.224 12.75 0 2.917.83 5.417 2.488 7.5.58.583.788 1.292.622 2.125-.249.667-.498 1.667-.747 3-.165.583-.414.917-.746 1-.415.167-.788.167-1.12 0-2.57-1.083-4.519-2.917-5.846-5.5S0 27.167 0 23.75c0-2.167.373-4.375 1.12-6.625.829-2.417 1.907-4.542 3.234-6.375C5.598 9 7.38 7.167 9.702 5.25c2.074-1.583 4.644-2.875 7.713-3.875A34.127 34.127 0 0126.993 0c3.566 0 6.841.625 9.827 1.875 3.068 1.167 5.597 2.75 7.587 4.75 1.99 2 3.608 4.333 4.852 7C50.419 16.375 51 19.083 51 21.75c0 7.583-1.907 13.792-5.722 18.625-3.815 4.917-8.707 7.375-14.678 7.375-2.156 0-4.022-.458-5.598-1.375-1.741-.917-2.985-2.042-3.731-3.375-1.327 5.833-2.198 9.333-2.612 10.5-.747 3-2.53 6.5-5.35 10.5h-2.611c-.498-5.167-.374-9.417.373-12.75l4.851-20.625c-.746-1.583-1.12-3.625-1.12-6.125z" /></symbol><symbol viewBox="0 0 64 60" id="snapchat"><path fill-rule="evenodd" d="M32.846-.074c2.502 0 4.92.54 7.256 1.618 1.918.83 3.461 1.867 4.629 3.112 1.668 1.577 3.002 3.444 4.003 5.602.917 1.991 1.168 6.265.75 12.821v.25c0 .497-.041.912-.124 1.244.083 0 .208.02.375.062.167.042.334.063.5.063.834 0 1.752-.25 2.753-.747.25-.166.667-.25 1.25-.25.418 0 .876.084 1.377.25 1.418.58 2.127 1.369 2.127 2.365 0 .664-.25 1.245-.751 1.743-.667.58-1.543 1.078-2.627 1.493-.084.083-.23.166-.438.25-.209.082-.355.124-.438.124-2.002.58-3.17 1.245-3.503 1.991-.25.664-.125 1.411.375 2.241.167.581.605 1.473 1.314 2.676.709 1.204 2.127 2.718 4.254 4.544 2.126 1.826 4.44 2.946 6.943 3.361 1 .166 1.418.664 1.25 1.494 0 .332-.04.58-.124.747-.167.58-.876 1.203-2.127 1.867-1.168.58-3.253 1.12-6.255 1.618-.084.083-.209.54-.376 1.37l-.375 1.493c-.25.747-.792 1.12-1.626 1.12h-.125a7.808 7.808 0 01-1.502-.124c-.917-.249-2.001-.373-3.252-.373-.5 0-1.335.083-2.502.249-1.085.166-2.586.912-4.504 2.24-3.253 2.324-6.172 3.486-8.757 3.486h-.876c-2.586 0-5.505-1.162-8.758-3.486-1.918-1.328-3.419-2.074-4.503-2.24-1.168-.166-1.96-.25-2.377-.25-.75 0-1.877.125-3.378.374-.834.166-1.335.249-1.501.249-.751 0-1.335-.415-1.752-1.245l-.375-1.494c-.25-.83-.375-1.286-.375-1.369-3.003-.498-5.088-1.037-6.256-1.618C1.278 48.183.57 47.56.32 46.98c-.084-.166-.126-.415-.126-.747-.166-.83.25-1.328 1.251-1.494 2.169-.415 3.962-1.12 5.38-2.116 1.251-.747 2.544-1.909 3.878-3.486 1.168-1.244 2.252-2.904 3.253-4.979h.125c.417-.913.5-1.66.25-2.24-.333-.664-1.46-1.328-3.378-1.992-.5-.166-.834-.29-1-.374-1.085-.415-1.877-.871-2.377-1.369-.751-.664-1.043-1.41-.876-2.24.167-.665.625-1.245 1.376-1.743.667-.332 1.293-.498 1.877-.498.25 0 .625.083 1.126.249 1 .498 1.918.747 2.752.747.417 0 .792-.083 1.126-.25 0-.082-.021-.29-.063-.622a6.571 6.571 0 01-.062-.747c-.417-6.556-.125-10.871.875-12.946 1.085-2.24 2.377-4.066 3.879-5.477a14.643 14.643 0 014.629-3.112c2.502-1.079 4.962-1.618 7.38-1.618h1.252zm0 1.493h-1.251c-.834 0-1.773.104-2.815.312-1.043.207-2.315.58-3.816 1.12-1.501.54-2.96 1.494-4.379 2.863-1.417 1.37-2.585 3.05-3.502 5.042-.918 1.825-1.168 5.892-.751 12.199 0 .249.02.601.062 1.058.042.456.063.767.063.933v.25l-.125.124c-.584.58-1.418.871-2.502.871-1.084 0-2.252-.29-3.503-.871-.084-.083-.209-.125-.375-.125-1.085 0-1.71.374-1.877 1.12 0 .582.792 1.204 2.377 1.868.334.166.626.249.876.249 2.418.83 3.878 1.826 4.378 2.987.5 1.08.376 2.2-.375 3.361-.334.747-.855 1.743-1.564 2.988-.709 1.245-2.21 2.842-4.503 4.793-2.294 1.95-4.817 3.174-7.57 3.672v.124c.334.996 2.795 1.867 7.382 2.614.667.083 1.167.913 1.501 2.49.167.664.292 1.12.375 1.37 0 .165.084.248.25.248.167 0 .584-.083 1.252-.249 1.751-.249 2.96-.373 3.628-.373.584 0 1.46.083 2.627.249 1.251.166 2.96.996 5.13 2.49 3.002 2.157 5.67 3.236 8.006 3.236h.75c2.336 0 5.005-1.079 8.007-3.237 2.169-1.493 3.878-2.323 5.13-2.49 1.167-.165 2.043-.248 2.627-.248.667 0 1.876.124 3.628.373.333.083.75.125 1.25.125.084 0 .168-.042.251-.125 0-.166.042-.394.125-.684.084-.29.167-.519.25-.685.334-1.577.834-2.407 1.502-2.49 4.17-.664 6.63-1.535 7.38-2.614v-.124c-1-.166-1.96-.436-2.877-.81a20.97 20.97 0 01-2.564-1.244 16.86 16.86 0 01-2.19-1.494c-.667-.54-1.272-1.1-1.814-1.68a23.95 23.95 0 01-1.438-1.68 39.983 39.983 0 01-1.189-1.62 17.05 17.05 0 01-.876-1.368 27.608 27.608 0 01-.563-1.059l-.25-.498c-.667-1.41-.75-2.572-.25-3.485.5-1.079 1.96-2.033 4.379-2.863.083 0 .208-.02.375-.062a.795.795 0 00.375-.187c1.585-.58 2.377-1.203 2.377-1.867 0-.415-.333-.747-1-.996-.167-.083-.46-.125-.876-.125-.334 0-.542.042-.626.125-1.501.58-2.627.871-3.378.871-.917 0-1.668-.29-2.251-.871l-.126-.125v-.249c0-.83.042-1.493.126-1.991.333-6.141.083-10.208-.751-12.2-.918-1.991-2.085-3.672-3.503-5.04-1.418-1.37-2.898-2.345-4.441-2.926-1.543-.581-2.794-.955-3.753-1.12a16.492 16.492 0 00-2.815-.25z" /></symbol><symbol viewBox="0 0 512.002 512.002" id="star"><path fill="currentColor" d="M511.267 197.258a14.995 14.995 0 00-12.107-10.209l-158.723-23.065-70.985-143.827a14.998 14.998 0 00-26.901 0l-70.988 143.827-158.72 23.065a14.998 14.998 0 00-8.312 25.585l114.848 111.954-27.108 158.083a14.999 14.999 0 0021.763 15.812l141.967-74.638 141.961 74.637a15 15 0 0021.766-15.813l-27.117-158.081 114.861-111.955a14.994 14.994 0 003.795-15.375z" /></symbol><symbol viewBox="0 0 64 43" id="triangle-down"><path fill-rule="evenodd" d="M64.005.001l-32.003 42.67L0 .001z" /></symbol><symbol viewBox="0 0 43 64" id="triangle-right"><path fill-rule="evenodd" d="M0 0l42.667 32L0 64z" /></symbol><symbol viewBox="0 0 40 64" id="tumblr"><path fill-rule="evenodd" d="M0 26.25v-9.125c2.5-.75 4.667-1.917 6.5-3.5 1.833-1.583 3.25-3.417 4.25-5.5C11.833 6.042 12.583 3.333 13 0h9.125v16.125h15.25V26.25h-15.25v16.375c0 3.667.208 6.042.625 7.125.333 1 1.042 1.833 2.125 2.5 1.583.917 3.208 1.375 4.875 1.375 3.167 0 6.417-1.083 9.75-3.25V60.5c-3.083 1.417-5.583 2.333-7.5 2.75-2.167.5-4.542.75-7.125.75-2.917 0-5.5-.375-7.75-1.125-2.417-.833-4.333-1.875-5.75-3.125C9.792 58.417 8.667 56.958 8 55.375c-.583-1.417-.875-3.667-.875-6.75V26.25H0z" /></symbol><symbol viewBox="0 0 64 52" id="twitter"><path fill-rule="evenodd" d="M57.5 13v1.625c0 6-1.396 11.792-4.188 17.375-2.791 5.583-7.104 10.312-12.937 14.188C34.542 50.063 27.792 52 20.125 52 12.708 52 6 50.042 0 46.125c.667.083 1.708.125 3.125.125 6.25 0 11.708-1.875 16.375-5.625-2.833 0-5.375-.854-7.625-2.563-2.25-1.708-3.833-3.895-4.75-6.562.583.167 1.417.25 2.5.25 1.25 0 2.417-.125 3.5-.375-3-.667-5.5-2.208-7.5-4.625s-3-5.167-3-8.25v-.25C4.542 19.333 6.5 19.875 8.5 19.875 4.583 17.375 2.625 13.75 2.625 9c0-2.167.625-4.375 1.875-6.625 6.917 8.667 15.917 13.25 27 13.75-.25-1-.375-2-.375-3 0-3.583 1.27-6.667 3.813-9.25C37.478 1.292 40.582 0 44.25 0c3.833 0 7.042 1.375 9.625 4.125 3.25-.667 6.042-1.708 8.375-3.125-1 3.083-2.917 5.5-5.75 7.25 2.917-.417 5.417-1.125 7.5-2.125A26.832 26.832 0 0157.5 13z" /></symbol><symbol viewBox="0 0 64 64" id="user"><path d="M32 40c17.68 0 32 7.16 32 16v8H0v-8c0-8.84 14.32-16 32-16zm0-40c8.837 0 16 7.163 16 16s-7.163 16-16 16-16-7.163-16-16S23.163 0 32 0z" /></symbol><symbol viewBox="0 0 64 56" id="vimeo"><path fill-rule="evenodd" d="M41.36 14.05c-1.583 0-3.166.379-4.749 1.137C39.693 4.657 45.691-.397 54.604.024c6.581.085 9.705 4.38 9.372 12.889-.417 6.486-4.79 15.12-13.12 25.903C42.192 50.272 34.862 56 28.864 56c-3.665 0-6.83-3.496-9.496-10.488-2.666-9.687-4.374-16.089-5.123-19.206-2-6.907-4.082-10.36-6.248-10.36-.5 0-2.166 1.01-4.998 3.032L0 15.06c2.083-1.938 5.206-4.76 9.371-8.466 4.082-3.622 7.248-5.56 9.497-5.813 2.416-.252 4.394.485 5.935 2.212 1.541 1.727 2.603 4.443 3.186 8.15 1.25 8.002 2.125 12.93 2.624 14.783 1.417 6.57 3 9.856 4.749 9.856 1.333 0 3.332-2.106 5.997-6.318 2.666-4.38 4.124-7.665 4.374-9.856.416-3.706-1.041-5.56-4.374-5.56z" /></symbol><symbol viewBox="0 0 64 64" id="whatsapp"><g fill-rule="evenodd"><path d="M54.714 9.25C60.904 15.417 64 22.917 64 31.75c0 8.75-3.116 16.23-9.349 22.438C48.418 60.395 40.91 63.5 32.125 63.5c-5.354 0-10.415-1.292-15.184-3.875L0 64l4.518-16.375C1.673 42.625.25 37.333.25 31.75.251 23 3.367 15.52 9.6 9.312 15.833 3.104 23.341 0 32.125 0c8.869 0 16.398 3.083 22.589 9.25zM32.125 58.125c7.279 0 13.512-2.583 18.699-7.75 5.186-5.167 7.78-11.375 7.78-18.625s-2.594-13.458-7.78-18.625c-5.187-5.167-11.42-7.75-18.699-7.75-7.278 0-13.51 2.562-18.698 7.688-5.187 5.125-7.78 11.354-7.78 18.687 0 5 1.339 9.667 4.016 14l.627 1-2.635 9.75 10.04-2.625 1.003.5c4.016 2.5 8.492 3.75 13.427 3.75z" /><path d="M47.242 38.377c.85.42 1.36.713 1.53.88.425.671.255 1.929-.51 3.773-.255.838-.999 1.656-2.231 2.452-1.233.796-2.317 1.278-3.252 1.446-2.04.168-3.74.042-5.1-.377a85.401 85.401 0 01-4.592-1.635c-4.59-2.012-9.18-6.036-13.772-12.072-2.21-2.934-3.315-5.7-3.315-8.3 0-2.263.935-4.484 2.805-6.664.595-.587 1.318-.88 2.168-.88h1.53c.85 0 1.488.461 1.913 1.383 1.445 3.354 2.253 5.324 2.423 5.91.34.503.383.964.128 1.384-.34.67-.638 1.09-.893 1.257-.595.838-.978 1.3-1.148 1.383-.51.671-.637 1.216-.382 1.635 1.275 2.18 2.763 4.024 4.463 5.533 1.445 1.258 3.613 2.599 6.503 4.024.68.335 1.276.251 1.786-.252 1.105-1.09 1.955-2.137 2.55-3.143.425-.587 1.02-.713 1.785-.377.255.083 1.19.523 2.806 1.32 1.615.796 2.55 1.236 2.805 1.32z" /></g></symbol><symbol viewBox="0 0 64 45" id="youtube"><path fill-rule="evenodd" d="M63.375 9.75L64 20v4.875c0 3.5-.208 6.958-.625 10.375l-.125 1.125c-.167.75-.458 1.667-.875 2.75s-.917 1.917-1.5 2.5c-1.583 1.583-3.75 2.5-6.5 2.75C48.458 44.792 41 45 32 45l-21.75-.625c-.083 0-.396-.042-.938-.125A33.004 33.004 0 017.875 44a19.568 19.568 0 01-1.5-.375 6.748 6.748 0 01-1.688-.75 8.569 8.569 0 01-1.562-1.25c-1.25-1.333-2.083-3.458-2.5-6.375L0 24.875V20c0-3.417.208-6.833.625-10.25L.75 8.5c.167-.75.458-1.646.875-2.688.417-1.041.917-1.854 1.5-2.437 1.5-1.583 3.667-2.5 6.5-2.75C15.542.208 23 0 32 0l22.375.625c2.833.25 5 1.167 6.5 2.75 1.25 1.25 2.083 3.375 2.5 6.375zM40.625 23l2.125-1.125-17.25-9v18L40.625 23z" /></symbol></defs></svg>