<svg viewbox="0 0 30 30" fill="none" xmlns="http://www.w3.org/2000/svg">
  <g fill="currentColor">
    <path d="M21.794 12.987V7.309a.657.657 0 00-.182-.431L15.247.194A.634.634 0 0014.791 0H4.699C2.836 0 1.348 1.52 1.348 3.383v19.083a3.341 3.341 0 003.35 3.357h7.967A8.599 8.599 0 0020.03 30c4.74 0 8.61-3.852 8.61-8.597.007-4.146-2.97-7.61-6.846-8.416zM15.416 2.195l4.27 4.495h-2.77a1.51 1.51 0 01-1.5-1.507V2.195zM4.7 24.573c-1.17 0-2.1-.938-2.1-2.107V3.383c0-1.176.93-2.132 2.1-2.132h9.466v3.932a2.757 2.757 0 002.752 2.758h3.626v4.883c-.187-.006-.337-.025-.5-.025-2.182 0-4.19.838-5.702 2.151H6.4a.627.627 0 00-.626.625c0 .344.282.626.626.626h6.778a9.95 9.95 0 00-1.1 1.938H6.4a.627.627 0 00-.626.625c0 .344.282.626.626.626h5.27a8.418 8.418 0 00-.237 2.013c0 1.125.219 2.238.613 3.176H4.699v-.006zm15.338 4.183c-4.052 0-7.347-3.295-7.347-7.347a7.35 7.35 0 017.347-7.347 7.35 7.35 0 017.346 7.347c0 4.052-3.295 7.347-7.346 7.347z"/>
    <path d="M6.4 13.068h6.334a.627.627 0 00.625-.625.627.627 0 00-.625-.626H6.4a.627.627 0 00-.626.626c0 .344.282.625.626.625zM22.581 20.821h-1.913v-1.945a.627.627 0 00-.625-.625.627.627 0 00-.625.625v1.945h-1.945a.627.627 0 00-.625.625c0 .344.281.626.625.626h1.945v1.913c0 .344.28.625.625.625a.627.627 0 00.625-.625v-1.913h1.913a.627.627 0 00.626-.626.627.627 0 00-.626-.625z"/>
  </g>
</svg>
