<svg xmlns="http://www.w3.org/2000/svg" viewBox="0 0 512 512">
  <path fill="currentColor" d="M504 256a8.006 8.006 0 00-5.03-7.43L347.54 188l151.43-60.57a8 8 0 000-14.86l-240-96a8.023 8.023 0 00-5.94 0l-240 96a8 8 0 000 14.86L164.46 188 13.03 248.57a8 8 0 000 14.86L164.46 324 13.03 384.57a8 8 0 000 14.86l240 96a8.023 8.023 0 005.94 0l240-96a8 8 0 000-14.86L347.54 324l151.43-60.57A8.006 8.006 0 00504 256zM37.54 120L256 32.62 474.46 120 256 207.38zm436.92 272L256 479.38 37.54 392 186 332.62l67.03 26.81a8.023 8.023 0 005.94 0L326 332.62zM256 343.38L37.54 256 186 196.62l67.03 26.81a8.023 8.023 0 005.94 0L326 196.62 474.46 256z"/>
</svg>
