<svg xmlns="http://www.w3.org/2000/svg" width="10" height="10" viewBox="0 0 10 10">
    <g fill="currentColor" fill-rule="nonzero">
      <path d="M9.833 9.667h-.666V5a.5.5 0 00-.5-.5v-1a.5.5 0 00-.5-.5V2a.5.5 0 00-.5-.5v-1a.5.5 0 00-.5-.5H2.833a.5.5 0 00-.5.5v1a.5.5 0 00-.5.5v1a.5.5 0 00-.5.5v1a.5.5 0 00-.5.5v4.667H.167a.167.167 0 100 .333h9.666a.167.167 0 000-.333zM2.667.5c0-.092.074-.167.166-.167h4.334c.092 0 .166.075.166.167v1H4.816a.833.833 0 00-1.632 0h-.517v-1zm1.802 1h-.938a.497.497 0 01.938 0zM2.167 2c0-.092.074-.167.166-.167h5.334c.092 0 .166.075.166.167v1H4.316a.833.833 0 00-1.632 0h-.517V2zm1.802 1h-.938a.497.497 0 01.938 0zm-2.302.5c0-.092.074-.167.166-.167h6.334c.092 0 .166.075.166.167v1H3.816a.833.833 0 00-1.632 0h-.517v-1zm1.802 1h-.938a.497.497 0 01.938 0zm5.364 5.167H1.167V5c0-.092.074-.167.166-.167h7.334c.092 0 .166.075.166.167v4.667z"/>
      <path d="M2.833 7.5a1 1 0 100-2 1 1 0 000 2zm0-1.667a.667.667 0 110 1.334.667.667 0 010-1.334zM8 5.5H4.5a.167.167 0 100 .333H8A.167.167 0 108 5.5zm0 .833H4.5a.167.167 0 000 .334H8a.167.167 0 000-.334zm0 .834H4.5a.167.167 0 100 .333H8a.167.167 0 100-.333zM8 8H2a.167.167 0 100 .333h6A.167.167 0 108 8zm0 .833H2a.167.167 0 000 .334h6a.167.167 0 100-.334z"/>
    </g>
</svg>
