<svg xmlns="http://www.w3.org/2000/svg" width="10" height="12" viewBox="0 0 10 12">
  <g fill="currentColor">
    <path d="M6.531 4.348a.281.281 0 00-.28.28V9.94a.281.281 0 00.561 0V4.63a.281.281 0 00-.28-.281zm-3.316 0a.281.281 0 00-.281.28V9.94a.281.281 0 00.562 0V4.63a.281.281 0 00-.281-.281z"/>
    <path d="M.798 3.573v6.924c0 .409.15.793.412 1.069.261.276.624.433 1.005.434h5.317c.38 0 .743-.158 1.004-.434a1.55 1.55 0 00.412-1.07V3.574a1.074 1.074 0 00-.275-2.112h-1.44v-.35A1.104 1.104 0 006.122 0H3.625a1.104 1.104 0 00-1.113 1.11v.351H1.074a1.074 1.074 0 00-.276 2.112zm6.734 7.865H2.215c-.481 0-.855-.413-.855-.941v-6.9h7.026v6.9c0 .528-.374.941-.854.941zM3.075 1.11a.541.541 0 01.55-.548h2.496a.541.541 0 01.55.548v.351H3.076v-.35zm-2.001.913h7.599a.506.506 0 110 1.012h-7.6a.506.506 0 110-1.012z"/>
    <path d="M4.873 4.348a.281.281 0 00-.28.28V9.94a.281.281 0 00.561 0V4.63a.281.281 0 00-.28-.281z"/>
  </g>
</svg>
