<svg xmlns="http://www.w3.org/2000/svg" width="10" height="10" viewBox="0 0 10 10">
    <g fill="currentColor" fill-rule="nonzero">
      <path d="M9.669 4.679H5.718a.312.312 0 010-.624h3.95a.312.312 0 010 .624z"/>
      <path d="M8.11 6.238a.312.312 0 01-.22-.533l1.338-1.339-1.34-1.339a.312.312 0 11.442-.441l1.56 1.56a.312.312 0 010 .44l-1.56 1.56a.31.31 0 01-.22.092zM3.326 9.981a.857.857 0 01-.258-.039L.566 9.108A.84.84 0 010 8.318V.831A.833.833 0 011.09.039l2.502.834a.84.84 0 01.567.79V9.15a.833.833 0 01-.832.832zM.832.624a.209.209 0 00-.208.208v7.485c0 .089.06.171.144.2l2.491.83c.018.007.041.01.068.01a.209.209 0 00.208-.208V1.664c0-.089-.06-.171-.145-.2L.9.633a.226.226 0 00-.068-.01z"/>
      <path d="M6.342 3.327a.312.312 0 01-.312-.312V1.144a.52.52 0 00-.52-.52H.832a.312.312 0 010-.624H5.51c.631 0 1.144.513 1.144 1.144v1.871c0 .172-.14.312-.312.312zM5.51 8.733H3.847a.312.312 0 010-.624H5.51a.52.52 0 00.52-.52V5.72a.312.312 0 01.624 0v1.87c0 .631-.513 1.144-1.144 1.144z"/>
    </g>
</svg>
