<svg xmlns="http://www.w3.org/2000/svg" width="33" height="64" viewBox="0 0 33 64">
  <path fill="#000000" fill-rule="evenodd" d="M21.625,64 L21.625,34.75 L31.375,34.75 L32.875,23.375 L21.625,23.375 L21.625,16.125 C21.625,14.2916575 22.0208294,12.9166713 22.8125,12 C23.6041706,11.0833287 25.0833225,10.625 27.25,10.625 L33.25,10.625 L33.25,0.5 C31.91666,0.166665 29.0000225,0 24.5,0 C19.9999775,0 16.4375131,1.31248687 13.8125,3.9375 C11.1874869,6.56251313 9.875,10.2499762 9.875,15 L9.875,23.375 L0,23.375 L0,34.75 L9.875,34.75 L9.875,64 L21.625,64 Z"/>
</svg>
