<svg xmlns="http://www.w3.org/2000/svg" width="64" height="30" viewBox="0 0 64 30">
  <g fill="#000000" fill-rule="evenodd">
    <path d="M15 30C10.8620483 30 7.32760086 28.5344974 4.39655172 25.6034483 1.46550259 22.6723991 0 19.1379517 0 15 0 10.8620483 1.46550259 7.32760086 4.39655172 4.39655172 7.32760086 1.46550259 10.8620483 0 15 0 19.1379517 0 22.6723991 1.46550259 25.6034483 4.39655172 28.5344974 7.32760086 30 10.8620483 30 15 30 19.1379517 28.5344974 22.6723991 25.6034483 25.6034483 22.6723991 28.5344974 19.1379517 30 15 30zM49 30C44.8620483 30 41.3276009 28.5344974 38.3965517 25.6034483 35.4655026 22.6723991 34 19.1379517 34 15 34 10.8620483 35.4655026 7.32760086 38.3965517 4.39655172 41.3276009 1.46550259 44.8620483 0 49 0 53.1379517 0 56.6723991 1.46550259 59.6034483 4.39655172 62.5344974 7.32760086 64 10.8620483 64 15 64 19.1379517 62.5344974 22.6723991 59.6034483 25.6034483 56.6723991 28.5344974 53.1379517 30 49 30z"/>
  </g>
</svg>
