<svg xmlns="http://www.w3.org/2000/svg" width="46" height="64" viewBox="0 0 46 64">
  <path fill="#000000" fill-rule="evenodd" d="M40.3278135,0 C44.9343366,0 46.7350413,2.70176278 45.7299817,8.10536939 C45.3112069,10.1005472 44.5993004,13.5297077 43.5942408,18.3929536 C42.5891812,23.2561996 41.6888289,27.7037167 40.8931567,31.7356386 C40.0974846,35.7675605 39.6577776,37.9913191 39.5740226,38.4069811 C39.3227577,39.40457 39.092435,40.1527505 38.8830476,40.6515449 C38.6736602,41.1503394 38.1501995,41.7322575 37.3126499,42.3973168 C36.4751003,43.0623761 35.3863021,43.3949007 34.0462226,43.3949007 L23.4931499,43.3949007 C23.2418851,43.3949007 22.9487471,43.5195975 22.6137272,43.7689947 C22.4462173,43.9352595 16.9603494,50.2532279 6.15595908,62.7230893 C5.06714454,64.0532078 3.68520837,64.3441669 2.01010909,63.5959752 C0.670029662,63.1803132 0,61.9333457 0,59.8550355 L0,5.73610757 C0,4.32285661 0.481583819,3.0135408 1.44476591,1.80812086 C2.40794799,0.602700927 3.93645316,0 6.03032726,0 L40.3278135,0 Z M38.3177045,9.2276513 C38.4014594,8.64572444 38.2758289,8.12615467 37.940809,7.66892642 C37.6057891,7.21169817 37.1870206,6.98308747 36.6844908,6.98308747 L9.17112271,6.98308747 C8.58483796,6.98308747 8.08231571,7.21169817 7.66354089,7.66892642 C7.24476607,8.12615467 7.0353818,8.60415886 7.0353818,9.10295331 L7.0353818,51.3755721 C7.0353818,51.5418369 7.11913551,51.5418369 7.28664544,51.3755721 L18.4678772,37.9081891 C19.3891818,36.8274678 20.5198569,36.2871153 21.8599363,36.2871153 L31.031059,36.2871153 C32.2036285,36.2871153 32.915535,35.7467627 33.1667999,34.6660414 C34.0043496,30.5094209 34.5068718,28.0570516 34.6743817,27.3088599 C34.7581367,26.7269331 34.5906293,26.1865805 34.1718545,25.6877861 C33.7530796,25.1889916 33.2924343,24.9395981 32.7899045,24.9395981 L21.357409,24.9395981 C19.6823098,24.9395981 18.8447727,24.1082865 18.8447727,22.4456383 L18.8447727,20.8245644 C18.8447727,19.1619162 19.6823098,18.3306046 21.357409,18.3306046 L34.8000136,18.3306046 C35.8888281,18.3306046 36.6007346,17.7902521 36.9357545,16.7095307 L38.3177045,9.2276513 Z"/>
</svg>
