<svg xmlns="http://www.w3.org/2000/svg" width="64" height="41" viewBox="0 0 64 41">
  <g fill="#000000" fill-rule="evenodd">
    <path d="M20.8351654,16.8615385 L20.8351654,24.7384615 L31.9120884,24.7384615 C31.4197783,27.3641157 30.0659457,29.4564025 27.85055,31.0153846 C26.4556712,31.9179532 24.9787629,32.4923065 23.4197807,32.7384615 C21.4505401,33.0666683 19.8095309,33.0666683 18.4967038,32.7384615 C17.0197734,32.4923065 15.542865,31.8359028 14.0659346,30.7692308 C11.8505389,29.2923003 10.2915801,27.2410388 9.38901151,24.6153846 C8.48644289,21.9897305 8.48644289,19.3641157 9.38901151,16.7384615 C10.045425,14.8512726 11.0300306,13.2512886 12.3428577,11.9384615 C14.0659432,10.215376 16.0761795,9.10769477 18.3736269,8.61538462 C20.5890226,8.20512615 22.5582337,8.28717662 24.2813192,8.86153846 C26.0044047,9.35384862 27.481313,10.2153785 28.7120884,11.4461538 L34.3736269,5.78461538 C32.5684897,3.97947815 30.3941524,2.62564554 27.85055,1.72307692 C23.4197586,0.0820430769 18.865958,0.0410178462 14.1890115,1.6 C9.01975489,3.40513723 5.20440843,6.72818092 2.74285766,11.5692308 C1.92234074,13.2923163 1.34798751,15.015376 1.01978074,16.7384615 C0.117212121,21.2513046 0.691565352,25.5999791 2.74285766,29.7846154 C4.21978812,32.5743729 6.06592351,34.7897354 8.2813192,36.4307692 C10.6608183,38.3179582 13.1223321,39.5897403 15.6659346,40.2461538 C19.030054,41.1487225 22.4761734,41.1487225 26.0043961,40.2461538 C29.0403087,39.671792 31.7889992,38.2769342 34.25055,36.0615385 C36.7121007,33.6820394 38.3941352,30.8512985 39.2967038,27.5692308 C40.3633758,24.2871631 40.568502,20.717968 39.9120884,16.8615385 L20.8351654,16.8615385 Z"/>
    <polygon points="63.666 17.354 56.774 17.354 56.774 10.462 51.727 10.462 51.727 17.354 44.835 17.354 44.835 22.4 51.727 22.4 51.727 29.292 56.774 29.292 56.774 22.4 63.666 22.4"/>
  </g>
</svg>
