<svg xmlns="http://www.w3.org/2000/svg" width="64" height="64" viewBox="0 0 64 64">
  <g fill="#000000" fill-rule="evenodd">
    <path d="M32,0 C36.2500213,0 40.6249775,0.0833325 45.125,0.25 C48.125015,0.33333375 50.7083225,0.7916625 52.875,1.625 C55.1250112,2.54167125 57.0416588,3.79165875 58.625,5.375 C60.2083412,6.95834125 61.4583287,8.87498875 62.375,11.125 C63.2083375,13.12501 63.6666663,15.7083175 63.75,18.875 C63.9166675,23.3750225 64,27.7499787 64,32 C64,36.2500213 63.9166675,40.6249775 63.75,45.125 C63.6666663,48.125015 63.2083375,50.7083225 62.375,52.875 C61.4583287,55.1250112 60.2083412,57.0416588 58.625,58.625 C57.0416588,60.2083412 55.1250112,61.4583287 52.875,62.375 C50.87499,63.2083375 48.2916825,63.6666662 45.125,63.75 C40.6249775,63.9166675 36.2500213,64 32,64 C27.7499788,64 23.3750225,63.9166675 18.875,63.75 C15.874985,63.6666662 13.2916775,63.2083375 11.125,62.375 C8.87498875,61.4583287 6.95834125,60.2083412 5.375,58.625 C3.79165875,57.0416588 2.54167125,55.1250112 1.625,52.875 C0.7916625,50.87499 0.33333375,48.2916825 0.25,45.125 C0.0833325,40.6249775 0,36.2500213 0,32 C0,27.7499787 0.0833325,23.3750225 0.25,18.875 C0.33333375,15.874985 0.7916625,13.2916775 1.625,11.125 C2.54167125,8.87498875 3.79165875,6.95834125 5.375,5.375 C6.95834125,3.79165875 8.87498875,2.54167125 11.125,1.625 C13.12501,0.7916625 15.7083175,0.33333375 18.875,0.25 C23.3750225,0.0833325 27.7499788,0 32,0 Z M32,5.75 C27.99998,5.75 23.66669,5.8333325 19,6 C16.666655,6.08333375 14.666675,6.45833 13,7.125 C11.66666,7.6250025 10.4583387,8.41666125 9.375,9.5 C8.374995,10.500005 7.58333625,11.7083263 7,13.125 C6.41666375,14.8750088 6.08333375,16.8749888 6,19.125 C5.8333325,23.6250225 5.75,27.9166462 5.75,32 C5.75,36.00002 5.8333325,40.33331 6,45 C6.08333375,47.333345 6.45833,49.333325 7.125,51 C7.6250025,52.33334 8.41666125,53.5416613 9.5,54.625 C10.500005,55.625005 11.7083263,56.4166637 13.125,57 C14.8750088,57.5833363 16.8749887,57.9166662 19.125,58 C23.6250225,58.1666675 27.9166462,58.25 32,58.25 C36.00002,58.25 40.33331,58.1666675 45,58 C47.333345,57.9166662 49.333325,57.54167 51,56.875 C52.33334,56.3749975 53.5416612,55.5833387 54.625,54.5 C55.625005,53.499995 56.4166637,52.2916737 57,50.875 C57.5833362,49.1249912 57.9166663,47.1250112 58,44.875 C58.1666675,40.3749775 58.25,36.0833538 58.25,32 C58.25,27.99998 58.1666675,23.66669 58,19 C57.9166663,16.666655 57.54167,14.666675 56.875,13 C56.3749975,11.66666 55.5833388,10.4583387 54.5,9.375 C53.499995,8.374995 52.2916737,7.58333625 50.875,7 C49.1249912,6.41666375 47.1250112,6.08333375 44.875,6 C40.3749775,5.8333325 36.0833538,5.75 32,5.75 Z"/>
    <path d="M31.5 16C36.0833563 16 39.9791506 17.6041506 43.1875 20.8125 46.3958494 24.0208494 48 27.9166438 48 32.5 48 37.0833562 46.3958494 40.9791506 43.1875 44.1875 39.9791506 47.3958494 36.0833563 49 31.5 49 26.9166438 49 23.0208494 47.3958494 19.8125 44.1875 16.6041506 40.9791506 15 37.0833562 15 32.5 15 27.9166438 16.6041506 24.0208494 19.8125 20.8125 23.0208494 17.6041506 26.9166438 16 31.5 16zM31.5 43.25C34.4166813 43.25 36.9374894 42.1875106 39.0625 40.0625 41.1875106 37.9374894 42.25 35.4166813 42.25 32.5 42.25 29.5833187 41.1875106 27.0625106 39.0625 24.9375 36.9374894 22.8124894 34.4166813 21.75 31.5 21.75 28.5833187 21.75 26.0625106 22.8124894 23.9375 24.9375 21.8124894 27.0625106 20.75 29.5833187 20.75 32.5 20.75 35.4166813 21.8124894 37.9374894 23.9375 40.0625 26.0625106 42.1875106 28.5833187 43.25 31.5 43.25zM54 14.9344262C54 16.0710439 53.628419 17.032783 52.8852459 17.8196721 52.1420728 18.6065613 51.2021915 19 50.0655738 19 48.9289561 19 47.967217 18.6065613 47.1803279 17.8196721 46.3934387 17.032783 46 16.0710439 46 14.9344262 46 13.7978085 46.3934387 12.8579272 47.1803279 12.1147541 47.967217 11.371581 48.9289561 11 50.0655738 11 51.2021915 11 52.1420728 11.371581 52.8852459 12.1147541 53.628419 12.8579272 54 13.7978085 54 14.9344262z"/>
  </g>
</svg>
