<svg xmlns="http://www.w3.org/2000/svg" width="64" height="63" viewBox="0 0 64 63">
  <g fill="#000000" fill-rule="evenodd">
    <path d="M47.3890115 32.2461538C46.4864429 31.2615335 45.0095346 30.7692308 42.9582423 30.7692308 40.3325881 30.7692308 38.4454275 31.5487102 37.2967038 33.1076923 36.2300318 34.6666745 35.6967038 36.8820369 35.6967038 39.7538462L35.6967038 61.2923077C35.6967038 61.7025662 35.5326029 62.0717932 35.2043961 62.4 34.8761894 62.7282068 34.5069623 62.8923077 34.0967038 62.8923077L22.7736269 62.8923077C22.5274718 62.8923077 22.1582447 62.7282068 21.6659346 62.4 21.3377278 61.9076898 21.1736269 61.5384628 21.1736269 61.2923077L21.1736269 21.5384615C21.1736269 21.2923065 21.3377278 20.9230794 21.6659346 20.4307692 22.1582447 20.1025625 22.5274718 19.9384615 22.7736269 19.9384615L33.727473 19.9384615C34.0556798 19.9384615 34.3838817 20.020512 34.7120884 20.1846154 34.8761918 20.2666671 35.0402927 20.5538437 35.2043961 21.0461538L35.2043961 21.6615385 35.327473 21.9076923 35.327473 22.8923077C38.0351789 20.2666535 41.7684749 18.9538462 46.527473 18.9538462 51.860833 18.9538462 55.9633561 20.2256283 58.8351654 22.7692308 61.7890263 25.4769366 63.2659346 29.3743335 63.2659346 34.4615385L63.2659346 61.2923077C63.2659346 61.7025662 63.1018337 62.0717932 62.7736269 62.4 62.4454201 62.7282068 62.076193 62.8923077 61.6659346 62.8923077L50.0967038 62.8923077C49.8505487 62.8923077 49.4813217 62.7282068 48.9890115 62.4 48.6608047 61.9076898 48.4967038 61.5384628 48.4967038 61.2923077L48.4967038 37.0461538C48.4967038 34.9948615 48.1274767 33.3948775 47.3890115 32.2461538zM13.2967038 13.1692308C11.8197734 14.6461612 10.0146632 15.3846154 7.8813192 15.3846154 5.7479752 15.3846154 3.94286504 14.6461612 2.46593458 13.1692308.989004121 11.6923003.250549967 9.88719015.250549967 7.75384615.250549967 5.70255385.989004121 3.93846892 2.46593458 2.46153846 4.02491674.902556308 5.83002689.123076923 7.8813192.123076923 9.93261151.123076923 11.7377217.902556308 13.2967038 2.46153846 14.7736343 3.93846892 15.5120884 5.70255385 15.5120884 7.75384615 15.5120884 9.88719015 14.7736343 11.6923003 13.2967038 13.1692308zM15.1428577 21.5384615L15.1428577 61.2923077C15.1428577 61.5384628 14.9787567 61.9076898 14.65055 62.4 14.1582398 62.7282068 13.7890127 62.8923077 13.5428577 62.8923077L2.21978074 62.8923077C1.97362566 62.8923077 1.60439858 62.7282068 1.11208843 62.4.78388166 61.9076898.619780736 61.5384628.619780736 61.2923077L.619780736 21.5384615C.619780736 21.2923065.78388166 20.9230794 1.11208843 20.4307692 1.60439858 20.1025625 1.97362566 19.9384615 2.21978074 19.9384615L13.5428577 19.9384615C13.7890127 19.9384615 14.1582398 20.1025625 14.65055 20.4307692 14.9787567 20.9230794 15.1428577 21.2923065 15.1428577 21.5384615z"/>
  </g>
</svg>
