<svg xmlns="http://www.w3.org/2000/svg" width="64" height="64" viewBox="0 0 64 64">
  <path fill="#000000" fill-rule="evenodd" d="M41.6606262,37.546268 L64,59.8856418 L59.8856418,64 L37.546268,41.6606262 C33.6050995,44.7242866 28.6527634,46.5486492 23.2743246,46.5486492 C10.4202701,46.5486492 0,36.1283791 0,23.2743246 C0,10.4202701 10.4202701,0 23.2743246,0 C36.1283791,0 46.5486492,10.4202701 46.5486492,23.2743246 C46.5486492,28.6527634 44.7242866,33.6050995 41.6606262,37.546268 Z M23.2743246,40.7300681 C32.9148655,40.7300681 40.7300681,32.9148655 40.7300681,23.2743246 C40.7300681,13.6337837 32.9148655,5.81858115 23.2743246,5.81858115 C13.6337837,5.81858115 5.81858115,13.6337837 5.81858115,23.2743246 C5.81858115,32.9148655 13.6337837,40.7300681 23.2743246,40.7300681 Z"/>
</svg>
