<svg xmlns="http://www.w3.org/2000/svg" width="51" height="64" viewBox="0 0 51 64">
  <path fill="#000000" fill-rule="evenodd" d="M14.802439,24.5 C14.802439,21.6666525 15.50731,19.3750088 16.9170732,17.625 C18.3268363,15.7083237 20.0268193,14.75 22.0170732,14.75 C23.675618,14.75 24.919508,15.2916613 25.7487805,16.375 C26.6609802,17.5416725 27.1170732,18.9166588 27.1170732,20.5 C27.1170732,21.4166713 26.9097582,22.6249925 26.495122,24.125 C25.831704,26.79168 25.375611,28.4999962 25.1268293,29.25 C24.2975568,31.8333462 23.8414638,33.3749975 23.7585366,33.875 C23.2609731,35.87501 23.6341401,37.6249925 24.8780488,39.125 C26.1219574,40.5416737 27.7390144,41.25 29.7292683,41.25 C33.2122125,41.25 36.0731595,39.2916862 38.3121951,35.375 C40.5512307,31.37498 41.6707317,26.5833613 41.6707317,21 C41.6707317,16.7499787 40.3024527,13.2500137 37.5658537,10.5 C34.7463274,7.83332 30.8902684,6.5 25.997561,6.5 C20.3585084,6.5 15.8805044,8.29164875 12.5634146,11.875 C9.08047039,15.3750175 7.33902439,19.624975 7.33902439,24.625 C7.33902439,27.5416813 8.16828439,30.0416562 9.82682927,32.125 C10.40732,32.7083363 10.614635,33.4166625 10.4487805,34.25 C10.1999988,34.91667 9.95122076,35.91666 9.70243902,37.25 C9.53658454,37.8333363 9.28780654,38.1666662 8.95609756,38.25 C8.54146134,38.4166675 8.16829434,38.4166675 7.83658537,38.25 C5.2658408,37.1666613 3.3170798,35.3333462 1.9902439,32.75 C0.663408,30.1666538 0,27.1666837 0,23.75 C0,21.5833225 0.373167,19.3750112 1.1195122,17.125 C1.94878463,14.7083213 3.02682263,12.5833425 4.35365854,10.75 C5.5975672,8.99999125 7.3804762,7.16667625 9.70243902,5.25 C11.7756201,3.66665875 14.3463261,2.375005 17.4146341,1.375 C20.5658694,0.45832875 23.7585204,0 26.9926829,0 C30.5585544,0 33.8341314,0.62499375 36.8195122,1.875 C39.8878202,3.0416725 42.4170632,4.62499 44.4073171,6.625 C46.3975709,8.62501 48.0146279,10.95832 49.2585366,13.625 C50.419518,16.3750137 51,19.08332 51,21.75 C51,29.3333713 49.092702,35.5416425 45.2780488,40.375 C41.4633956,45.2916912 36.5707616,47.75 30.6,47.75 C28.4438917,47.75 26.5780567,47.2916713 25.002439,46.375 C23.2609669,45.4583287 22.0170769,44.33334 21.2707317,43 C19.9438958,48.8333625 19.0731728,52.3333275 18.6585366,53.5 C17.9121914,56.500015 16.1292824,59.99998 13.3097561,64 L10.697561,64 C10.1999975,58.8333075 10.3243865,54.58335 11.0707317,51.25 L15.9219512,30.625 C15.175606,29.0416588 14.802439,27.0000125 14.802439,24.5 Z"/>
</svg>
