<svg xmlns="http://www.w3.org/2000/svg" width="64" height="60" viewBox="0 0 64 60">
  <path fill="#000000" fill-rule="evenodd" d="M32.8457519,-0.0742765989 C35.3478588,-0.0742765989 37.7665258,0.465137094 40.1018255,1.54398066 C42.0201074,2.37386033 43.5630502,3.41119436 44.7307001,4.65601386 C46.3987713,6.23278523 47.7332083,8.09998647 48.734051,10.2576736 C49.6514902,12.2493848 49.9016971,16.523201 49.4846793,23.0792504 L49.4846793,23.328213 C49.4846793,23.8261408 49.4429782,24.2410744 49.3595746,24.5730263 C49.4429782,24.5730263 49.5680816,24.593773 49.7348887,24.635267 C49.9016959,24.676761 50.0685005,24.6975076 50.2353076,24.6975076 C51.0693432,24.6975076 51.9867687,24.4485475 52.9876114,23.9506197 C53.2378221,23.7846437 53.6548336,23.701657 54.2386586,23.701657 C54.6556764,23.701657 55.1143891,23.7846437 55.6148105,23.9506197 C57.032671,24.5315354 57.7415907,25.3199093 57.7415907,26.3157649 C57.7415907,26.9796686 57.4913837,27.5605757 56.9909624,28.0585035 C56.3237339,28.6394193 55.4480096,29.1373396 54.3637633,29.5522794 C54.2803597,29.6352674 54.1344057,29.7182541 53.9258968,29.8012421 C53.7173879,29.88423 53.5714338,29.9257234 53.4880303,29.9257234 C51.4863448,30.5066392 50.3187124,31.1705329 49.9850982,31.9174246 C49.7348875,32.5813284 49.859991,33.3282089 50.3604123,34.1580885 C50.5272195,34.7390043 50.9650816,35.6311116 51.6740119,36.8344371 C52.3829421,38.0377626 53.8007814,39.5522703 55.9275723,41.3780056 C58.0543631,43.2037408 60.3687772,44.3240616 62.8708841,44.7390014 C63.8717268,44.9049773 64.2887384,45.4028977 64.1219312,46.2327773 C64.1219312,46.5647292 64.0802301,46.8136894 63.9968265,46.9796653 C63.8300194,47.5605811 63.1210998,48.1829815 61.8700463,48.8468852 C60.7023965,49.427801 58.6173387,49.9672147 55.6148105,50.4651425 C55.5314069,50.5481305 55.4063034,51.0045574 55.2394963,51.8344371 L54.8641822,53.328213 C54.6139715,54.0751047 54.0718565,54.448545 53.2378208,54.448545 L53.1127161,54.448545 C52.5288912,54.448545 52.0284773,54.4070516 51.6114595,54.3240637 C50.6940203,54.0750997 49.6097903,53.9506197 48.3587369,53.9506197 C47.8583155,53.9506197 47.0242924,54.0336064 45.8566425,54.1995823 C44.7723962,54.3655583 43.2711546,55.1124388 41.3528727,56.4402462 C38.1001338,58.7639093 35.1810529,59.9257234 32.5955425,59.9257234 L31.7198095,59.9257234 C29.134299,59.9257234 26.2152182,58.7639093 22.9624792,56.4402462 C21.0441973,55.1124388 19.5429557,54.3655583 18.4587094,54.1995823 C17.2910596,54.0336064 16.4987376,53.9506197 16.0817198,53.9506197 C15.3310877,53.9506197 14.2051565,54.0750997 12.7038924,54.3240637 C11.8698568,54.4900396 11.3694429,54.5730263 11.2026358,54.5730263 C10.4520038,54.5730263 9.86818759,54.1580927 9.45116978,53.328213 L9.07585563,51.8344371 C8.82564494,51.0045574 8.70054148,50.5481305 8.70054148,50.4651425 C5.69801325,49.9672147 3.61295548,49.427801 2.44530561,48.8468852 C1.27765574,48.1829815 0.568736102,47.5605811 0.318525416,46.9796653 C0.235121854,46.8136894 0.193420699,46.5647292 0.193420699,46.2327773 C0.0266135751,45.4028977 0.443625129,44.9049773 1.44446787,44.7390014 C3.61296048,44.3240616 5.40611016,43.6186744 6.82397072,42.6228188 C8.07502414,41.8759271 9.36775996,40.714113 10.702217,39.1373417 C11.8698668,37.8925222 12.9540969,36.2327877 13.9549396,34.1580885 L14.0800443,34.1580885 C14.4970621,33.2452209 14.5804644,32.4983404 14.3302538,31.9174246 C13.9966395,31.2535209 12.8707083,30.5896271 10.9524264,29.9257234 C10.452005,29.7597475 10.1183958,29.6352674 9.95158865,29.5522794 C8.86734234,29.1373396 8.07502039,28.6809126 7.57459902,28.1829848 C6.82396696,27.5190811 6.53205887,26.7722006 6.698866,25.9423209 C6.86567312,25.2784172 7.32438583,24.6975101 8.07501789,24.1995823 C8.74224638,23.8676305 9.36776371,23.701657 9.95158865,23.701657 C10.2017993,23.701657 10.5771097,23.7846437 11.0775311,23.9506197 C12.0783738,24.4485475 12.9957993,24.6975076 13.8298349,24.6975076 C14.2468527,24.6975076 14.6221631,24.6145209 14.9557773,24.448545 C14.9557773,24.365557 14.9349268,24.1580902 14.893225,23.8261383 C14.8515232,23.4941865 14.8306726,23.2452263 14.8306726,23.0792504 C14.4136548,16.523201 14.7055629,12.2078915 15.7064056,10.1331923 C16.7906519,7.89251718 18.0833878,6.06680929 19.5846519,4.65601386 C20.9191089,3.32820639 22.4620516,2.29087236 24.2135264,1.54398066 C26.7156333,0.465137094 29.1760014,-0.0742765989 31.5947047,-0.0742765989 L32.8457519,-0.0742765989 Z M32.8457519,1.41949933 L31.5947047,1.41949933 C30.7606691,1.41949933 29.8223931,1.52323274 28.7798486,1.73070265 C27.7373041,1.93817257 26.4654188,2.31161282 24.9641547,2.8510346 C23.4628906,3.39045639 22.0033502,4.34480369 20.5854896,5.71410514 C19.1676291,7.0834066 17.9999967,8.76388772 17.0825575,10.7555989 C16.1651184,12.5813342 15.9149114,16.6476836 16.3319292,22.954769 C16.3319292,23.2037329 16.3527798,23.5564265 16.3944816,24.0128603 C16.4361834,24.4692941 16.4570339,24.7804944 16.4570339,24.9464703 L16.4570339,25.1954329 L16.3319292,25.3199143 C15.7481043,25.90083 14.9140812,26.1912836 13.8298349,26.1912836 C12.7455886,26.1912836 11.5779562,25.90083 10.3269028,25.3199143 C10.2434992,25.2369263 10.1183958,25.1954329 9.95158865,25.1954329 C8.86734234,25.1954329 8.24182501,25.5688732 8.07501789,26.3157649 C8.07501789,26.8966807 8.86733984,27.5190811 10.4520075,28.1829848 C10.7856218,28.3489607 11.0775299,28.4319475 11.3277405,28.4319475 C13.7464438,29.2618271 15.2059843,30.2576678 15.7064056,31.4194993 C16.206827,32.4983429 16.0817235,33.6186637 15.3310915,34.7804952 C14.9974772,35.5273869 14.4762128,36.5232276 13.7672825,37.7680471 C13.0583522,39.0128666 11.5571107,40.610361 9.2635127,42.5605782 C6.96991475,44.5107954 4.44699485,45.7348495 1.69467731,46.2327773 L1.69467731,46.3572587 C2.02829155,47.3531143 4.48865972,48.2244749 9.07585563,48.9713666 C9.74308412,49.0543545 10.243498,49.8842217 10.5771122,51.4609931 C10.7439194,52.1248968 10.8690228,52.5813238 10.9524264,52.8302877 C10.9524264,52.9962637 11.0358287,53.0792504 11.2026358,53.0792504 C11.3694429,53.0792504 11.7864545,52.9962637 12.453683,52.8302877 C14.2051578,52.5813238 15.4144913,52.4568437 16.0817198,52.4568437 C16.6655447,52.4568437 17.541269,52.5398305 18.7089189,52.7058064 C19.9599723,52.8717823 21.6697197,53.7016495 23.8382123,55.1954329 C26.8407405,57.3531201 29.5096144,58.4319475 31.8449142,58.4319475 L32.5955425,58.4319475 C34.9308422,58.4319475 37.5997162,57.3531201 40.6022444,55.1954329 C42.770737,53.7016495 44.4804844,52.8717823 45.7315378,52.7058064 C46.8991877,52.5398305 47.7749119,52.4568437 48.3587369,52.4568437 C49.0259654,52.4568437 50.2352989,52.5813238 51.9867737,52.8302877 C52.3203879,52.9132757 52.7373995,52.954769 53.2378208,52.954769 C53.3212244,52.954769 53.4046267,52.9132757 53.4880303,52.8302877 C53.4880303,52.6643118 53.5297314,52.4360983 53.613135,52.1456404 C53.6965385,51.8551825 53.7799409,51.626969 53.8633444,51.4609931 C54.1969587,49.8842217 54.6973725,49.0543545 55.364601,48.9713666 C59.5347791,48.3074628 61.9951473,47.4361022 62.7457793,46.3572587 L62.7457793,46.2327773 C61.7449366,46.0668014 60.78581,45.7970946 59.8683709,45.4236487 C58.9509317,45.0502029 58.096058,44.6352693 57.3037241,44.1788354 C56.5113903,43.7224016 55.7816201,43.2244813 55.1143916,42.6850595 C54.4471631,42.1456377 53.8424963,41.5854773 53.3003732,41.0045616 C52.75825,40.4236458 52.2786868,39.8634854 51.8616689,39.3240637 C51.4446511,38.7846419 51.0484902,38.2452282 50.6731741,37.7058064 C50.2978581,37.1663846 50.00595,36.7099576 49.7974411,36.3365118 C49.5889322,35.9630659 49.401277,35.6103724 49.2344699,35.2784205 L48.9842604,34.7804952 C48.317032,33.3696997 48.2336296,32.2078856 48.734051,31.295018 C49.2344724,30.2161744 50.6940128,29.2618271 53.1127161,28.4319475 C53.1961197,28.4319475 53.3212231,28.4112008 53.4880303,28.3697068 C53.6548374,28.3282128 53.7799409,28.2659728 53.8633444,28.1829848 C55.4480121,27.602069 56.240334,26.9796686 56.240334,26.3157649 C56.240334,25.9008251 55.9067248,25.5688782 55.2394963,25.3199143 C55.0726892,25.2369263 54.7807811,25.1954329 54.3637633,25.1954329 C54.030149,25.1954329 53.8216433,25.2369263 53.7382397,25.3199143 C52.2369756,25.90083 51.1110444,26.1912836 50.3604123,26.1912836 C49.4429732,26.1912836 48.6923524,25.90083 48.1085274,25.3199143 L47.9834227,25.1954329 L47.9834227,24.9464703 C47.9834227,24.1165906 48.0251239,23.4526968 48.1085274,22.954769 C48.4421417,16.8136595 48.1919347,12.7473101 47.3578991,10.7555989 C46.4404599,8.76388772 45.2728276,7.0834066 43.854967,5.71410514 C42.4371065,4.34480369 40.9567155,3.36970971 39.4137496,2.78879394 C37.8707837,2.20787817 36.619749,1.83443792 35.6606081,1.66846199 C34.7014671,1.50248606 33.7631911,1.41949933 32.8457519,1.41949933 Z"/>
</svg>
