<svg xmlns="http://www.w3.org/2000/svg" width="40" height="64" viewBox="0 0 40 64">
  <path fill="#000000" fill-rule="evenodd" d="M0,26.25 L0,17.125 C2.5000125,16.3749962 4.6666575,15.2083412 6.5,13.625 C8.3333425,12.0416588 9.749995,10.2083438 10.75,8.125 C11.8333387,6.04165625 12.5833313,3.33335 13,0 L22.125,0 L22.125,16.125 L37.375,16.125 L37.375,26.25 L22.125,26.25 L22.125,42.625 C22.125,46.291685 22.3333313,48.6666613 22.75,49.75 C23.083335,50.750005 23.7916613,51.58333 24.875,52.25 C26.4583412,53.1666713 28.083325,53.625 29.75,53.625 C32.9166825,53.625 36.16665,52.5416775 39.5,50.375 L39.5,60.5 C36.4166512,61.9166737 33.9166763,62.8333313 32,63.25 C29.8333225,63.7500025 27.4583462,64 24.875,64 C21.9583187,64 19.3750112,63.6250038 17.125,62.875 C14.7083212,62.0416625 12.7916737,61.0000063 11.375,59.75 C9.79165875,58.41666 8.66667,56.9583412 8,55.375 C7.41666375,53.9583263 7.125,51.7083488 7.125,48.625 L7.125,26.25 L0,26.25 Z"/>
</svg>
