<svg xmlns="http://www.w3.org/2000/svg" width="64" height="52" viewBox="0 0 64 52">
  <path fill="#000000" fill-rule="evenodd" d="M57.5,13 L57.5,14.625 C57.5,20.62503 56.1041806,26.4166387 53.3125,32 C50.5208194,37.5833613 46.2083625,42.3124806 40.375,46.1875 C34.5416375,50.0625194 27.791705,52 20.125,52 C12.7082962,52 6.00003,50.0416862 0,46.125 C0.66667,46.2083338 1.70832625,46.25 3.125,46.25 C9.37503125,46.25 14.83331,44.3750187 19.5,40.625 C16.6666525,40.625 14.1250112,39.7708419 11.875,38.0625 C9.62498875,36.3541581 8.04167125,34.16668 7.125,31.5 C7.70833625,31.6666675 8.54166125,31.75 9.625,31.75 C10.8750063,31.75 12.0416613,31.6250012 13.125,31.375 C10.124985,30.70833 7.62501,29.1666788 5.625,26.75 C3.62499,24.3333212 2.625,21.5833488 2.625,18.5 L2.625,18.25 C4.54167625,19.3333387 6.49999,19.875 8.5,19.875 C4.58331375,17.3749875 2.625,13.7500238 2.625,9 C2.625,6.8333225 3.24999375,4.62501125 4.5,2.375 C11.4167012,11.04171 20.4166112,15.6249975 31.5,16.125 C31.2499988,15.124995 31.125,14.125005 31.125,13.125 C31.125,9.54164875 32.3958206,6.45834625 34.9375,3.875 C37.4791794,1.29165375 40.583315,0 44.25,0 C48.0833525,0 51.2916538,1.37498625 53.875,4.125 C57.1250163,3.45833 59.916655,2.41667375 62.25,1 C61.249995,4.08334875 59.3333475,6.49999125 56.5,8.25 C59.4166813,7.83333125 61.9166562,7.125005 64,6.125 C62.2499912,8.79168 60.0833462,11.0833237 57.5,13 Z"/>
</svg>
