<svg xmlns="http://www.w3.org/2000/svg" width="64" height="56" viewBox="0 0 64 56">
  <path fill="#000000" fill-rule="evenodd" d="M41.3594276,14.0498138 C39.7766823,14.0498138 38.1939607,14.4288779 36.6112154,15.1870176 C39.6934037,4.65729973 45.6910855,-0.396889038 54.6044407,0.0242996768 C61.1853292,0.10853742 64.3091218,4.40459787 63.9759122,12.9126099 C63.5594003,19.3989161 59.1860907,28.0331553 50.8558521,38.8155864 C42.192404,50.2719194 34.861904,56 28.8641323,56 C25.1988273,56 22.0333841,52.5041861 19.3677078,45.5124534 C16.7020315,35.825113 14.9943582,29.4231406 14.2446367,26.3063441 C12.2453795,19.3988491 10.1628511,15.9451535 7.99698903,15.9451535 C7.49717472,15.9451535 5.831152,16.9559912 2.99887089,18.9776971 L0,15.0606616 C2.08255964,13.1231935 5.20635224,10.3012715 9.37147152,6.59481078 C13.4532884,2.97258783 16.6187316,1.0351488 18.867896,0.782435573 C21.2836652,0.529722344 23.2620672,1.26679154 24.8031613,2.99366527 C26.3442554,4.720539 27.4063449,7.43716546 27.9894616,11.1436262 C29.2389974,19.1462117 30.1136593,24.0740458 30.6134736,25.9272761 C32.0296142,32.4978201 33.6123358,35.7830428 35.3616859,35.7830428 C36.694524,35.7830428 38.6937513,33.6771308 41.3594276,29.4652436 C44.025104,25.084881 45.4828739,21.7996583 45.732781,19.609477 C46.1492929,15.9030163 44.6915231,14.0498138 41.3594276,14.0498138 Z"/>
</svg>
