<svg xmlns="http://www.w3.org/2000/svg" width="64" height="64" viewBox="0 0 64 64">
  <g fill="#000000" fill-rule="evenodd">
    <path d="M54.7137255,9.25 C60.9046061,15.4166975 64,22.9166225 64,31.75 C64,40.5000438 60.8836913,47.9791356 54.6509804,54.1875 C48.4182695,60.3958644 40.9098478,63.5 32.1254902,63.5 C26.7712151,63.5 21.7098278,62.2083462 16.9411765,59.625 L0,64 L4.51764706,47.625 C1.67318839,42.624975 0.250980392,37.3333613 0.250980392,31.75 C0.250980392,22.9999562 3.3672891,15.5208644 9.6,9.3125 C15.8327109,3.10413563 23.3411325,0 32.1254902,0 C40.9935084,0 48.5228449,3.0833025 54.7137255,9.25 Z M32.1254902,58.125 C39.403958,58.125 45.6365754,55.5416925 50.8235294,50.375 C56.0104835,45.2083075 58.6039216,39.0000362 58.6039216,31.75 C58.6039216,24.4999638 56.0104835,18.2916925 50.8235294,13.125 C45.6365754,7.9583075 39.403958,5.375 32.1254902,5.375 C24.8470224,5.375 18.614405,7.93747437 13.427451,13.0625 C8.24049694,18.1875256 5.64705882,24.41663 5.64705882,31.75 C5.64705882,36.750025 6.98560753,41.416645 9.6627451,45.75 L10.2901961,46.75 L7.65490196,56.5 L17.6941176,53.875 L18.6980392,54.375 C22.7137456,56.8750125 27.1895178,58.125 32.1254902,58.125 Z"/>
    <path d="M47.2420628,38.377245 C48.0921912,38.7964087 48.6022606,39.089819 48.7722863,39.2574845 C49.1973505,39.9281465 49.0273274,41.1856189 48.2622118,43.0299395 C48.0071733,43.868267 47.2633221,44.6856241 46.0306359,45.4820352 C44.7979497,46.2784464 43.7140522,46.7604775 42.778911,46.928143 C40.7386028,47.0958085 39.0383715,46.9700612 37.678166,46.5508975 C35.8928964,45.9640682 34.3626882,45.4191635 33.0874956,44.916167 C28.4968022,42.9041809 23.9061776,38.8802692 19.3154842,32.844311 C17.1051504,29.9101647 16,27.1437253 16,24.54491 C16,22.2814257 16.9351272,20.0598911 18.8054097,17.8802395 C19.4004996,17.2934102 20.1230979,17 20.9732263,17 L22.5034498,17 C23.3535782,17 23.991165,17.4610732 24.4162292,18.3832335 C25.8614475,21.7365436 26.6690573,23.7065837 26.839083,24.293413 C27.1791344,24.7964095 27.2216402,25.2574827 26.9666016,25.6766465 C26.6265503,26.3473085 26.3290098,26.766466 26.0739713,26.9341315 C25.4788814,27.772459 25.0963293,28.2335322 24.9263037,28.317365 C24.4162266,28.988027 24.2887093,29.5329317 24.5437478,29.9520955 C25.8189404,32.1317471 27.3066428,33.9760399 29.0068996,35.4850295 C30.4521179,36.7425208 32.6199128,38.0838247 35.5103494,39.5089815 C36.1904522,39.8443125 36.7855331,39.760481 37.2956102,39.2574845 C38.4007771,38.1676587 39.2508927,37.119765 39.8459826,36.113772 C40.2710468,35.5269427 40.8661278,35.4011955 41.6312434,35.7365265 C41.8862819,35.8203592 42.8214091,36.2604746 44.4366531,37.0568857 C46.0518971,37.8532969 46.9870243,38.2934122 47.2420628,38.377245 Z"/>
  </g>
</svg>
