<svg xmlns="http://www.w3.org/2000/svg" width="64" height="45" viewBox="0 0 64 45">
  <path fill="#000000" fill-rule="evenodd" d="M63.375,9.75 L64,20 L64,24.875 C64,28.3750175 63.7916688,31.8333163 63.375,35.25 L63.25,36.375 C63.0833325,37.1250038 62.7916688,38.0416613 62.375,39.125 C61.9583313,40.2083387 61.4583363,41.0416637 60.875,41.625 C59.2916588,43.2083412 57.1250138,44.1249988 54.375,44.375 C48.4583037,44.7916687 41.000045,45 32,45 L10.25,44.375 C10.1666662,44.375 9.85416937,44.3333338 9.3125,44.25 C8.77083062,44.1666662 8.29166875,44.0833338 7.875,44 C7.45833125,43.9166662 6.95833625,43.7916675 6.375,43.625 C5.79166375,43.4583325 5.22916937,43.208335 4.6875,42.875 C4.14583062,42.541665 3.6250025,42.1250025 3.125,41.625 C1.87499375,40.29166 1.04166875,38.1666813 0.625,35.25 L0,24.875 L0,20 C0,16.5833163 0.20833125,13.1666837 0.625,9.75 L0.75,8.5 C0.9166675,7.74999625 1.20833125,6.85417188 1.625,5.8125 C2.04166875,4.77082812 2.54166375,3.95833625 3.125,3.375 C4.6250075,1.79165875 6.7916525,0.87500125 9.625,0.625 C15.5416963,0.20833125 22.999955,0 32,0 L54.375,0.625 C57.2083475,0.87500125 59.3749925,1.79165875 60.875,3.375 C62.1250063,4.62500625 62.9583313,6.749985 63.375,9.75 Z M40.625,23 L42.75,21.875 L25.5,12.875 L25.5,30.875 L40.625,23 Z"/>
</svg>
